<svg width="97" height="97" viewBox="0 0 97 97" fill="none" xmlns="http://www.w3.org/2000/svg">
<g clip-path="url(#clip0_121_3637)">
<path d="M62.4874 86.9896H31.8742C25.5842 86.9774 19.5226 84.6314 14.8633 80.4058C10.2041 76.1802 7.27887 70.3759 6.6542 64.117L4.9082 46.657H89.5116L87.7656 64.117C87.1399 70.3859 84.2064 76.1984 79.5349 80.4253C74.8634 84.6523 68.7874 86.9918 62.4874 86.9896Z" fill="white"/>
<path d="M5.68408 46.6764H88.9877V54.902H5.68408V46.6764Z" fill="#FFB531"/>
<path d="M61.2843 86.9896V95.06H33.0767V86.9896" fill="#F35244"/>
<path d="M29.5462 27.5286C29.1 20.1372 20.8356 15.7916 13.4248 18.9732C4.01581 23.0084 6.03341 36.1034 14.938 37.6166C22.7174 38.9358 30.0506 34.92 29.5462 27.5286V27.5286Z" fill="#F4D240"/>
<path d="M16.1602 22.0772C17.9526 21.2774 19.921 20.9536 21.8752 21.1371C23.8293 21.3207 25.703 22.0053 27.3152 23.1248C25.8334 21.0272 23.6644 19.5142 21.184 18.848C18.7037 18.1819 16.0685 18.4046 13.7352 19.4776C12.2022 20.0984 10.8636 21.1186 9.85869 22.4322C8.85377 23.7458 8.21926 25.3047 8.02119 26.9467C7.82313 28.5887 8.06874 30.2537 8.73247 31.7686C9.3962 33.2834 10.4538 34.5927 11.7952 35.5602C11.0822 34.4145 10.628 33.1269 10.4641 31.7874C10.3002 30.4479 10.4306 29.0888 10.8462 27.8049C11.2619 26.5211 11.9527 25.3434 12.8705 24.3541C13.7883 23.3648 14.911 22.5878 16.1602 22.0772V22.0772Z" fill="white"/>
<path d="M8.88525 47.9374H14.9381V53.9902H8.88525V47.9374ZM22.9891 47.9374H29.0419V53.9902H22.9891V47.9374ZM37.0929 47.9374H43.1457V53.9902H37.0929V47.9374ZM51.2161 47.9374H57.2689V53.9902H51.2161V47.9374ZM65.3199 47.9374H71.3727V53.9902H65.3199V47.9374ZM79.4237 47.9374H85.4765V53.9902H79.4237V47.9374Z" fill="#F98500"/>
<path d="M11.0193 64.117L9.2733 46.657H4.8501L6.5961 64.117C7.22076 70.3759 10.146 76.1802 14.8052 80.4058C19.4645 84.6314 25.5261 86.9774 31.8161 86.9896H36.2587C29.9654 86.9822 23.899 84.6383 19.2356 80.4123C14.5723 76.1863 11.6443 70.3792 11.0193 64.117V64.117Z" fill="white"/>
<path d="M89.5117 44.7364H4.85012C4.57817 44.735 4.30898 44.7908 4.06001 44.9002C3.81103 45.0096 3.58784 45.1702 3.40491 45.3714C3.22198 45.5726 3.08339 45.81 2.99815 46.0683C2.91291 46.3265 2.88292 46.5998 2.91012 46.8704L4.65612 64.3304C5.28549 70.9457 8.31831 77.1008 13.1805 81.6305C18.0427 86.1602 24.3968 88.7502 31.0401 88.9102V95.06C31.0401 95.5745 31.2445 96.0679 31.6083 96.4318C31.9722 96.7956 32.4656 97 32.9801 97H61.2847C61.5395 97 61.7917 96.9498 62.0271 96.8523C62.2625 96.7548 62.4764 96.6119 62.6565 96.4318C62.8366 96.2516 62.9795 96.0378 63.077 95.8024C63.1745 95.567 63.2247 95.3147 63.2247 95.06V88.9102C69.8846 88.7684 76.2601 86.1841 81.139 81.6486C86.0178 77.1131 89.0597 70.9428 89.6863 64.311L91.4323 46.851C91.4595 46.5804 91.4295 46.3071 91.3443 46.0489C91.259 45.7906 91.1205 45.5532 90.9375 45.352C90.7546 45.1508 90.5314 44.9902 90.2824 44.8808C90.0334 44.7714 89.7643 44.7156 89.4923 44.717L89.5117 44.7364ZM84.8945 48.6164L84.4677 52.8068H7.41092L6.98412 48.6164H84.8945ZM8.51672 64.02L7.76012 56.6868H84.0797L83.4201 64.117C83.017 68.1097 81.6727 71.9499 79.4975 75.3223C77.3223 78.6947 74.3783 81.5031 70.9071 83.517C68.2422 84.5289 65.4157 85.0482 62.5651 85.0496H31.8743C26.065 85.0697 20.4559 82.9279 16.1386 79.0409C11.8212 75.1538 9.10436 69.7996 8.51672 64.02V64.02ZM34.9201 93.12V88.9296H59.3447V93.12H34.9201ZM91.9561 21.5922L31.4863 27.8584V27.3928C31.3658 25.6404 30.8555 23.937 29.9925 22.407L88.6387 7.41079C88.8858 7.3471 89.118 7.23536 89.3219 7.08194C89.5259 6.92853 89.6976 6.73645 89.8273 6.51668C89.957 6.2969 90.0421 6.05372 90.0779 5.80104C90.1136 5.54836 90.0992 5.29111 90.0355 5.04399C89.9718 4.79687 89.8601 4.56471 89.7067 4.36077C89.5533 4.15684 89.3612 3.98511 89.1414 3.85541C88.9216 3.7257 88.6784 3.64056 88.4258 3.60483C88.1731 3.5691 87.9158 3.5835 87.6687 3.64719L27.1601 19.109C26.6724 18.6888 26.1536 18.3062 25.6081 17.9644C23.6564 16.8091 21.4573 16.1361 19.1933 16.0011C16.9294 15.8661 14.6658 16.2732 12.5907 17.1884C10.1864 18.1577 8.17057 19.8959 6.858 22.1314C5.54543 24.367 5.00995 26.9742 5.33512 29.5462C5.57474 31.9874 6.6042 34.2838 8.26726 36.0869C9.93032 37.89 12.1362 39.1014 14.5501 39.5372C15.6271 39.7182 16.7173 39.8091 17.8093 39.8088C21.4978 39.9138 25.0959 38.6569 27.9167 36.278C29.256 35.0711 30.2644 33.5418 30.8461 31.8354L92.3441 25.4528C92.8586 25.3988 93.3306 25.1426 93.6562 24.7405C93.9819 24.3385 94.1344 23.8236 94.0804 23.3091C94.0264 22.7946 93.7702 22.3226 93.3682 21.997C92.9661 21.6713 92.4512 21.5188 91.9367 21.5728L91.9561 21.5922ZM25.3753 33.3874C23.9585 34.4887 22.3176 35.2662 20.568 35.665C18.8184 36.0639 17.0026 36.0745 15.2485 35.696C13.6628 35.4054 12.216 34.603 11.1298 33.4117C10.0435 32.2203 9.37781 30.7058 9.23452 29.1C8.98771 27.3567 9.34104 25.5814 10.2365 24.0655C11.1319 22.5496 12.5163 21.3832 14.1621 20.758C15.5227 20.1726 16.9878 19.869 18.4689 19.8656C20.2866 19.8537 22.0723 20.3438 23.6293 21.2818C24.7414 21.9555 25.6746 22.8874 26.35 23.9985C27.0255 25.1095 27.4231 26.367 27.5093 27.6644V28.2658L17.8093 29.2746C17.2948 29.3003 16.8116 29.5294 16.4659 29.9114C16.1203 30.2934 15.9406 30.7971 15.9663 31.3116C15.992 31.8261 16.2211 32.3093 16.6031 32.655C16.9851 33.0006 17.4888 33.1803 18.0033 33.1546H18.1973L26.3453 32.301C26.0606 32.6958 25.7355 33.0599 25.3753 33.3874V33.3874Z" fill="black"/>
</g>
<defs>
<clipPath id="clip0_121_3637">
<rect width="97" height="97" fill="white"/>
</clipPath>
</defs>
</svg>
