<svg width="39" height="39" viewBox="0 0 39 39" fill="none" xmlns="http://www.w3.org/2000/svg">
<path d="M17.5946 22.3037H19.1481C20.0054 22.3037 20.7017 23 20.7017 23.8573C20.7017 24.7145 20.0054 25.4108 19.1481 25.4108H17.5946C16.7373 25.4108 16.041 24.7145 16.041 23.8573C16.0448 22.9963 16.7373 22.3037 17.5946 22.3037Z" fill="black"/>
<path d="M34.6725 17.6469C34.6725 13.7162 31.7489 10.4668 27.9567 9.95398C26.6989 6.30033 23.2287 3.67615 19.1483 3.67615C15.0679 3.67615 11.5977 6.30033 10.3398 9.95398C6.54769 10.4668 3.62402 13.7124 3.62402 17.6469C3.62402 21.4016 6.28939 24.5349 9.83447 25.2536V33.1674C9.83447 34.0246 10.5308 34.7209 11.388 34.7209H26.9123C27.7695 34.7209 28.4658 34.0246 28.4658 33.1674V25.2499C32.0034 24.5311 34.6725 21.4016 34.6725 17.6469ZM26.9085 22.3038H25.355C24.4977 22.3038 23.8014 23 23.8014 23.8573C23.8014 24.7146 24.4977 25.4108 25.355 25.4108V31.6213H12.9378V23.8536C12.9378 22.9963 12.2415 22.3 11.3843 22.3C8.8125 22.3 6.72738 20.2149 6.72738 17.6431C6.72738 15.6141 8.02637 13.8884 9.83447 13.2483C9.98421 13.1958 10.1377 13.1509 10.2949 13.1135H10.3024C10.3286 13.106 10.3548 13.1023 10.3848 13.0948L10.4072 13.091C10.4334 13.0873 10.4559 13.0798 10.4821 13.076L10.512 13.0723C10.5345 13.0686 10.5607 13.0648 10.5832 13.0573L10.6131 13.0536C10.688 13.0424 10.7629 13.0311 10.8377 13.0236C10.8564 13.0199 10.8752 13.0199 10.8939 13.0162L10.9463 13.0124C10.965 13.0124 10.9875 13.0087 11.0062 13.0087L11.0548 13.0049L11.1185 13.0012L11.1634 12.9974C11.1896 12.9974 11.2121 12.9937 11.2383 12.9937H11.5003C11.9945 13.0049 12.4811 13.0948 12.9453 13.2595C12.9416 13.1696 12.9416 13.0798 12.9416 12.9937C12.9416 12.5033 12.9977 12.0166 13.1138 11.5412C13.125 11.5038 13.1325 11.4626 13.1437 11.4252L13.1512 11.4027C13.1624 11.3653 13.1737 11.3278 13.1812 11.2904V11.2867C13.1924 11.2492 13.2036 11.208 13.2148 11.1706L13.2223 11.1482L13.256 11.0471L13.2598 11.0321C13.271 10.9947 13.286 10.9572 13.2972 10.9198L13.3047 10.8973C13.3159 10.8674 13.3271 10.8337 13.3384 10.8038L13.3459 10.7813C13.3608 10.7439 13.3721 10.7102 13.387 10.6765L13.3945 10.654C13.4058 10.6241 13.417 10.5941 13.432 10.5679L13.4432 10.5417C13.4582 10.508 13.4731 10.4743 13.4881 10.4369L13.4956 10.4182C13.5068 10.3882 13.5218 10.362 13.5368 10.3321L13.5518 10.3021C14.555 8.22074 16.6851 6.7795 19.152 6.7795C21.5928 6.7795 23.7041 8.18705 24.7186 10.2347L24.7336 10.2609C24.7523 10.2946 24.7673 10.3321 24.7822 10.3658L24.786 10.377C24.8009 10.4107 24.8159 10.4406 24.8309 10.4743L24.8421 10.5005C24.8571 10.538 24.8721 10.5717 24.887 10.6091L24.8908 10.6203C24.9058 10.654 24.917 10.6877 24.932 10.7214L24.9432 10.7476C24.9582 10.785 24.9731 10.8225 24.9844 10.8599L24.9881 10.8674C24.9993 10.9048 25.0143 10.9385 25.0256 10.976L25.033 10.9984C25.0443 11.0358 25.0592 11.077 25.0705 11.1145V11.1182L25.1042 11.2305L25.1117 11.2492C25.1229 11.2904 25.1341 11.3278 25.1453 11.369V11.3728C25.1566 11.4139 25.1678 11.4514 25.1753 11.4926L25.179 11.5113L25.2352 11.7583C25.3175 12.1626 25.3587 12.5782 25.3587 12.99C25.3587 13.0798 25.355 13.1696 25.3512 13.2557C26.216 12.9488 27.1481 12.9039 28.0391 13.1285C28.0615 13.1322 28.084 13.1397 28.1064 13.1472L28.1401 13.1547C28.1589 13.1584 28.1813 13.1659 28.2 13.1696L28.2375 13.1809C28.2562 13.1846 28.2749 13.1921 28.2899 13.1958L28.3311 13.2108L28.3797 13.2258L28.4209 13.2408C30.2477 13.8697 31.5617 15.6029 31.5617 17.6469C31.5654 20.2186 29.4803 22.3038 26.9085 22.3038Z" fill="black"/>
</svg>
