<?xml version="1.0" standalone="no"?><!DOCTYPE svg PUBLIC "-//W3C//DTD SVG 1.1//EN" "http://www.w3.org/Graphics/SVG/1.1/DTD/svg11.dtd"><svg t="1639638870446" class="icon" viewBox="0 0 1024 1024" version="1.1" xmlns="http://www.w3.org/2000/svg" p-id="2005" xmlns:xlink="http://www.w3.org/1999/xlink" width="200" height="200"><defs><style type="text/css"></style></defs><path d="M170.666667 408.192l-21.930667 13.013333a42.666667 42.666667 0 1 1-41.429333-74.624l342.528-202.453333a128 128 0 0 1 124.330666 0l342.528 202.453333a42.666667 42.666667 0 0 1-41.386666 74.624L853.333333 408.192V870.4a25.6 25.6 0 0 1-25.6 25.6h-247.466666a25.6 25.6 0 0 1-25.6-25.6v-136.533333a8.533333 8.533333 0 0 0-8.533334-8.533334h-68.266666a8.533333 8.533333 0 0 0-8.533334 8.533334v136.533333a25.6 25.6 0 0 1-25.6 25.6H196.266667a25.6 25.6 0 0 1-25.6-25.6V408.192zM426.666667 512h170.666666a42.666667 42.666667 0 0 1 0 85.333333h-170.666666a42.666667 42.666667 0 0 1 0-85.333333zM256 357.674667V802.133333c0 4.693333 3.84 8.533333 8.533333 8.533334h110.933334a8.533333 8.533333 0 0 0 8.533333-8.533334V682.666667a42.666667 42.666667 0 0 1 42.666667-42.666667h170.666666a42.666667 42.666667 0 0 1 42.666667 42.666667v119.466666c0 4.693333 3.84 8.533333 8.533333 8.533334h110.933334a8.533333 8.533333 0 0 0 8.533333-8.533334V357.674667l-235.264-139.306667a42.666667 42.666667 0 0 0-41.472 0L256 357.674667z" p-id="2006"></path></svg>