<svg width="53" height="26" viewBox="0 0 53 26" fill="none" xmlns="http://www.w3.org/2000/svg">
<path d="M18.2124 0.913086C18.5746 0.964833 18.8204 1.0748 18.9498 1.24297C19.0921 1.41115 19.1633 1.63108 19.1633 1.90275C19.1633 2.79539 18.6846 3.20937 17.7273 3.14468L17.0481 3.08647C16.2848 3.02178 15.5216 2.97004 14.7583 2.93123C14.008 2.89242 13.2188 2.87301 12.3909 2.87301H11.5176C11.3624 4.78766 11.2007 6.53413 11.0325 8.11242L14.3702 8.0542C14.8488 8.0542 15.1658 8.13829 15.321 8.30647C15.4892 8.47465 15.5733 8.70104 15.5733 8.98565C15.5733 9.4255 15.4439 9.7748 15.1852 10.0335C14.9265 10.2793 14.5578 10.4022 14.0791 10.4022H10.7608L10.6444 11.2367C10.3727 13.3712 9.79056 14.8913 8.89792 15.7969C8.01822 16.7025 6.80216 17.1552 5.24974 17.1552C4.37004 17.1552 3.56149 16.9677 2.82409 16.5925C2.08669 16.2044 1.54335 15.7387 1.19405 15.1953C1.05175 14.9754 0.980595 14.7102 0.980595 14.3997C0.980595 14.0892 1.05175 13.8175 1.19405 13.5847C1.34929 13.3518 1.53688 13.2354 1.7568 13.2354C1.91204 13.2354 2.06082 13.2871 2.20312 13.3906C2.35836 13.4941 2.55242 13.6946 2.78528 13.9922C3.40625 14.8072 4.17598 15.2147 5.0945 15.2147C5.8319 15.2147 6.44639 14.9172 6.93799 14.3221C7.44253 13.7141 7.76595 12.7632 7.90825 11.4695L8.02468 10.4022H7.09323C6.79569 10.4022 6.53695 10.3181 6.31703 10.15C6.11004 9.98178 6.00654 9.74245 6.00654 9.43197C6.00654 9.03093 6.11004 8.72691 6.31703 8.51993C6.52401 8.3 6.82803 8.19004 7.22907 8.19004C7.5913 8.19004 7.94706 8.18357 8.29636 8.17063C8.4516 6.74758 8.61978 5.02052 8.80089 2.98944C7.40372 3.11881 6.42052 3.34521 5.8513 3.66862C5.28208 3.99204 4.99747 4.47071 4.99747 5.10461C4.99747 5.54446 5.12684 5.96491 5.38558 6.36595C5.4632 6.48238 5.50201 6.59881 5.50201 6.71524C5.50201 6.9481 5.37264 7.15509 5.1139 7.33621C4.85517 7.50439 4.56409 7.58848 4.24067 7.58848C3.89138 7.58848 3.59383 7.48498 3.34803 7.27799C3.19279 7.14862 3.04401 6.88342 2.90171 6.48238C2.75941 6.08134 2.68825 5.63502 2.68825 5.14342C2.68825 3.53926 3.50974 2.37495 5.15271 1.65048C6.80862 0.926023 9.22134 0.563792 12.3909 0.563792C14.5901 0.563792 16.5306 0.680223 18.2124 0.913086ZM17.4509 17.097C16.6488 17.097 16.0085 16.8059 15.5298 16.2238C15.0511 15.6416 14.8118 14.8784 14.8118 13.934C14.8118 12.899 15.0511 11.9223 15.5298 11.0038C16.0085 10.0723 16.6424 9.32848 17.4315 8.77219C18.2336 8.20297 19.0809 7.91836 19.9736 7.91836C20.2582 7.91836 20.4458 7.97658 20.5363 8.09301C20.6398 8.19651 20.7239 8.39056 20.7886 8.67517C21.0603 8.62342 21.3449 8.59755 21.6424 8.59755C22.2763 8.59755 22.5933 8.82394 22.5933 9.27673C22.5933 9.5484 22.4963 10.1952 22.3022 11.2172C22.0047 12.705 21.8559 13.7399 21.8559 14.3221C21.8559 14.5161 21.9012 14.6714 21.9917 14.7878C22.0952 14.9042 22.2246 14.9625 22.3798 14.9625C22.6256 14.9625 22.9232 14.8072 23.2725 14.4967C23.6218 14.1733 24.094 13.6558 24.6891 12.9443C24.8443 12.7632 25.0189 12.6726 25.213 12.6726C25.3812 12.6726 25.5105 12.7503 25.6011 12.9055C25.7046 13.0607 25.7563 13.2742 25.7563 13.5459C25.7563 14.0633 25.6334 14.4644 25.3876 14.749C24.8572 15.4088 24.2945 15.9651 23.6994 16.4178C23.1043 16.8706 22.5286 17.097 21.9723 17.097C21.5454 17.097 21.1508 16.9547 20.7886 16.6701C20.4393 16.3726 20.1741 15.9715 19.993 15.467C19.3203 16.5537 18.4729 17.097 17.4509 17.097ZM18.1495 15.1371C18.4341 15.1371 18.7058 14.9689 18.9645 14.6326C19.2233 14.2962 19.4108 13.8499 19.5273 13.2936L20.2453 9.72305C19.7019 9.73599 19.1974 9.94297 18.7317 10.344C18.2789 10.7321 17.9166 11.2496 17.645 11.8964C17.3733 12.5433 17.2375 13.2289 17.2375 13.9534C17.2375 14.3544 17.3151 14.652 17.4703 14.846C17.6385 15.0401 17.8649 15.1371 18.1495 15.1371ZM27.8856 17.097C26.6178 17.097 25.6281 16.7413 24.9166 16.0297C24.218 15.3053 23.8687 14.3544 23.8687 13.1772C23.8687 12.1293 24.0757 11.2108 24.4897 10.4216C24.9037 9.63249 25.4405 9.02446 26.1003 8.59755C26.7601 8.17063 27.4522 7.95718 28.1767 7.95718C28.8882 7.95718 29.438 8.17063 29.8261 8.59755C30.2272 9.01152 30.4277 9.5484 30.4277 10.2082C30.4277 10.7515 30.3048 11.2108 30.059 11.5859C29.8261 11.9611 29.5156 12.1487 29.1275 12.1487C28.8817 12.1487 28.6812 12.0905 28.526 11.9741C28.3837 11.8576 28.3125 11.6959 28.3125 11.4889C28.3125 11.3984 28.3255 11.2949 28.3513 11.1784C28.3772 11.062 28.3966 10.9779 28.4095 10.9262C28.4742 10.7321 28.5066 10.551 28.5066 10.3828C28.5066 10.2146 28.4613 10.0853 28.3707 9.99472C28.2931 9.90416 28.1767 9.85888 28.0214 9.85888C27.7239 9.85888 27.4458 9.99472 27.187 10.2664C26.9283 10.5251 26.7213 10.8809 26.5661 11.3337C26.4108 11.7865 26.3332 12.2845 26.3332 12.8279C26.3332 14.3286 26.9865 15.0789 28.2931 15.0789C28.8235 15.0789 29.3927 14.9042 30.0008 14.5549C30.6217 14.1927 31.2298 13.6558 31.8249 12.9443C31.9801 12.7632 32.1547 12.6726 32.3488 12.6726C32.517 12.6726 32.6463 12.7503 32.7369 12.9055C32.8404 13.0607 32.8921 13.2742 32.8921 13.5459C32.8921 14.0375 32.7692 14.4385 32.5234 14.749C31.9154 15.4993 31.1845 16.0815 30.3307 16.4955C29.4898 16.8965 28.6747 17.097 27.8856 17.097ZM33.8656 6.67643C33.3222 6.67643 32.9147 6.55353 32.6431 6.30773C32.3714 6.049 32.2356 5.69323 32.2356 5.24045C32.2356 4.78766 32.4102 4.41249 32.7595 4.11494C33.1217 3.80446 33.568 3.64922 34.0985 3.64922C34.5771 3.64922 34.9652 3.76565 35.2628 3.99851C35.5603 4.23138 35.7091 4.56126 35.7091 4.98818C35.7091 5.50565 35.5409 5.91963 35.2045 6.23011C34.8682 6.52766 34.4219 6.67643 33.8656 6.67643ZM33.7103 17.097C32.8695 17.097 32.255 16.7995 31.8669 16.2044C31.4917 15.6093 31.3041 14.8201 31.3041 13.837C31.3041 13.2548 31.3753 12.5109 31.5176 11.6054C31.6728 10.6868 31.8669 9.83301 32.0997 9.04387C32.2161 8.62989 32.3714 8.34528 32.5654 8.19004C32.7595 8.0348 33.07 7.95718 33.4969 7.95718C34.1567 7.95718 34.4866 8.1771 34.4866 8.61695C34.4866 8.94037 34.3637 9.69071 34.1179 10.868C33.8074 12.291 33.6521 13.2548 33.6521 13.7593C33.6521 14.1474 33.7039 14.445 33.8074 14.652C33.9109 14.859 34.0855 14.9625 34.3313 14.9625C34.5642 14.9625 34.8553 14.8007 35.2045 14.4773C35.5538 14.1539 36.0196 13.6429 36.6017 12.9443C36.757 12.7632 36.9316 12.6726 37.1257 12.6726C37.2938 12.6726 37.4232 12.7503 37.5138 12.9055C37.6173 13.0607 37.669 13.2742 37.669 13.5459C37.669 14.0633 37.5461 14.4644 37.3003 14.749C36.0196 16.3143 34.8229 17.097 33.7103 17.097ZM46.4614 12.6726C46.6296 12.6726 46.7589 12.7503 46.8495 12.9055C46.953 13.0607 47.0047 13.2742 47.0047 13.5459C47.0047 14.0633 46.8818 14.4644 46.636 14.749C46.0798 15.4346 45.4782 15.9974 44.8314 16.4372C44.1974 16.8771 43.473 17.097 42.658 17.097C41.9723 17.097 41.416 16.8512 40.9891 16.3596C40.2517 16.8383 39.482 17.0841 38.6799 17.097C38.5117 19.5938 38.1301 21.6767 37.535 23.3455C36.9399 25.0273 36.0667 25.8682 34.9153 25.8682C34.2167 25.8682 33.6992 25.6159 33.3629 25.1114C33.0265 24.6068 32.8583 23.9083 32.8583 23.0156C32.8583 21.7478 33.1494 20.2665 33.7316 18.5718C34.3137 16.89 35.2128 15.0336 36.4289 13.0025C36.4289 11.1138 36.416 9.80067 36.3901 9.06327C36.3772 8.6881 36.5259 8.39056 36.8364 8.17063C37.1469 7.95071 37.535 7.84074 38.0007 7.84074C38.2724 7.84074 38.4664 7.89896 38.5829 8.01539C38.7122 8.11889 38.7834 8.33234 38.7963 8.65576C38.7963 8.97918 38.8028 9.21851 38.8157 9.37376C39.2297 8.85628 39.6372 8.48758 40.0383 8.26766C40.4393 8.0348 40.8662 7.91836 41.319 7.91836C42.0435 7.91836 42.6321 8.20944 43.0849 8.7916C43.5506 9.37375 43.7835 10.137 43.7835 11.0814C43.7835 11.7671 43.6735 12.4333 43.4536 13.0801C43.2337 13.727 42.9296 14.3156 42.5415 14.846C42.8132 14.9236 43.0396 14.9625 43.2207 14.9625C43.6476 14.9625 44.0551 14.8072 44.4432 14.4967C44.8314 14.1862 45.3294 13.6688 45.9374 12.9443C46.0927 12.7632 46.2673 12.6726 46.4614 12.6726ZM38.7769 15.2341C39.2427 15.1306 39.6696 14.8784 40.0577 14.4773C40.4587 14.0633 40.7757 13.5588 41.0085 12.9637C41.2414 12.3557 41.3578 11.7218 41.3578 11.062C41.3578 10.6739 41.2802 10.3828 41.125 10.1888C40.9697 9.98178 40.7627 9.87829 40.504 9.87829C40.0383 9.87829 39.4755 10.3699 38.8157 11.3531C38.8028 11.9223 38.7963 12.7567 38.7963 13.8564C38.7963 14.4514 38.7899 14.9107 38.7769 15.2341ZM35.0705 23.9665C35.4198 23.9665 35.7109 23.2032 35.9438 21.6767C36.1766 20.163 36.3254 18.2743 36.3901 16.0103C35.8338 17.304 35.394 18.5395 35.0705 19.7167C34.7471 20.894 34.5854 21.8836 34.5854 22.6857C34.5854 23.0997 34.6372 23.4167 34.7406 23.6366C34.8312 23.8565 34.9412 23.9665 35.0705 23.9665ZM52.3886 13.2548C52.5568 13.2548 52.6862 13.3324 52.7767 13.4877C52.8802 13.6429 52.932 13.8564 52.932 14.128C52.932 14.5938 52.822 14.9948 52.6021 15.3312C52.2398 15.8874 51.7612 16.3208 51.1661 16.6313C50.5839 16.9418 49.8853 17.097 49.0703 17.097C47.8284 17.097 46.8646 16.7283 46.1789 15.9909C45.4933 15.2406 45.1505 14.2315 45.1505 12.9637C45.1505 12.0711 45.3381 11.2431 45.7132 10.4799C46.0884 9.70364 46.6059 9.08915 47.2656 8.63636C47.9384 8.18357 48.6952 7.95718 49.536 7.95718C50.2864 7.95718 50.8879 8.18357 51.3407 8.63636C51.7935 9.07621 52.0199 9.67777 52.0199 10.441C52.0199 11.3337 51.6965 12.1034 51.0497 12.7503C50.4158 13.3842 49.3291 13.8887 47.7896 14.2639C48.1001 14.859 48.624 15.1565 49.3614 15.1565C49.8918 15.1565 50.3252 15.0336 50.6616 14.7878C51.0108 14.542 51.4119 14.128 51.8647 13.5459C52.0199 13.3518 52.1946 13.2548 52.3886 13.2548ZM49.2062 9.85888C48.7275 9.85888 48.32 10.137 47.9836 10.6933C47.6602 11.2496 47.4985 11.9223 47.4985 12.7114V12.7503C48.2618 12.5691 48.8633 12.2975 49.3032 11.9352C49.743 11.573 49.963 11.1526 49.963 10.6739C49.963 10.4281 49.8918 10.2341 49.7495 10.0917C49.6201 9.93651 49.439 9.85888 49.2062 9.85888Z" fill="#FEB201"/>
</svg>
