<?xml version="1.0" standalone="no"?><!DOCTYPE svg PUBLIC "-//W3C//DTD SVG 1.1//EN" "http://www.w3.org/Graphics/SVG/1.1/DTD/svg11.dtd"><svg t="1639607363371" class="icon" viewBox="0 0 1024 1024" version="1.1" xmlns="http://www.w3.org/2000/svg" p-id="6949" xmlns:xlink="http://www.w3.org/1999/xlink" width="200" height="200"><defs><style type="text/css"></style></defs><path d="M349.44 35.84C220.16 81.92 119.04 175.36 55.04 307.2c-30.72 61.44-34.56 85.76-35.84 198.4 0 119.04 2.56 134.4 42.24 213.76C115.2 828.16 225.28 933.12 328.96 974.08c55.04 20.48 102.4 28.16 183.04 29.44 96 0 119.04-3.84 193.28-39.68 147.2-69.12 244.48-179.2 286.72-328.96 64-221.44-55.04-474.88-271.36-578.56C622.08 8.96 450.56 0 349.44 35.84z m330.24 101.12c84.48 37.12 154.88 106.24 197.12 192 32 62.72 37.12 89.6 37.12 176.64 0 121.6-26.88 192-107.52 280.32-192 208.64-527.36 157.44-663.04-99.84-29.44-56.32-34.56-80.64-34.56-174.08s5.12-119.04 35.84-181.76c43.52-88.32 128-166.4 218.88-202.24 84.48-33.28 230.4-29.44 316.16 8.96z" p-id="6950"></path><path d="M414.72 273.92c-61.44 61.44-61.44 133.12 0 194.56 35.84 35.84 53.76 43.52 97.28 43.52 43.52 0 61.44-7.68 97.28-43.52S652.8 414.72 652.8 371.2c0-43.52-7.68-61.44-43.52-97.28S555.52 230.4 512 230.4c-43.52 0-61.44 7.68-97.28 43.52zM381.44 565.76c-40.96 38.4-74.24 108.8-74.24 157.44V755.2h409.6v-30.72c0-47.36-32-112.64-75.52-153.6-35.84-34.56-48.64-38.4-131.84-38.4-81.92-1.28-94.72 2.56-128 33.28z" p-id="6951"></path></svg>