<svg width="61" height="61" viewBox="0 0 61 61" fill="none" xmlns="http://www.w3.org/2000/svg">
<path d="M31.4531 7.74063C31.4531 7.47511 31.4009 7.21219 31.2993 6.96688C31.1977 6.72157 31.0487 6.49867 30.861 6.31091C30.6732 6.12316 30.4504 5.97422 30.2051 5.87261C29.9597 5.77099 29.6968 5.71869 29.4313 5.71869C28.8951 5.71873 28.3808 5.93176 28.0016 6.31094L27.9642 6.34835C27.8596 6.45296 27.7264 6.5242 27.5813 6.55307C27.4362 6.58194 27.2859 6.56714 27.1492 6.51054C27.0125 6.45394 26.8957 6.35809 26.8135 6.2351C26.7314 6.11212 26.6875 5.96752 26.6875 5.81961V4.81883C26.6875 3.79243 25.8987 2.90912 24.8733 2.86087C24.6155 2.8484 24.3578 2.88843 24.1159 2.97853C23.874 3.06863 23.6529 3.20692 23.466 3.38503C23.2792 3.56313 23.1304 3.77733 23.0288 4.01464C22.9272 4.25195 22.8749 4.50743 22.875 4.76557V5.81961C22.875 5.9675 22.8311 6.11206 22.7489 6.23502C22.6667 6.35798 22.55 6.45382 22.4133 6.51041C22.2767 6.567 22.1263 6.58181 21.9813 6.55297C21.8362 6.52412 21.703 6.45292 21.5984 6.34835C21.2142 5.95497 20.6905 5.72875 20.1407 5.71869C19.8744 5.71744 19.6105 5.76881 19.3641 5.86985C19.1177 5.9709 18.8937 6.11962 18.7049 6.30749C18.5162 6.49536 18.3664 6.71867 18.2642 6.96459C18.162 7.21051 18.1094 7.4742 18.1094 7.74051C18.1094 8.27674 18.3224 8.79101 18.7015 9.1702L21.5609 12.0296C21.2781 11.7469 20.9178 11.5543 20.5257 11.4763C20.1335 11.3984 19.727 11.4384 19.3575 11.5914C18.9881 11.7445 18.6724 12.0036 18.4502 12.3361C18.228 12.6685 18.1094 13.0594 18.1094 13.4593C18.1094 13.7248 18.1617 13.9877 18.2633 14.233C18.3649 14.4783 18.5139 14.7012 18.7016 14.8889L21.561 17.7483C21.2782 17.4656 20.918 17.2731 20.5258 17.1951C20.1336 17.1171 19.7271 17.1572 19.3577 17.3102C18.9882 17.4632 18.6725 17.7223 18.4503 18.0548C18.2281 18.3873 18.1095 18.7781 18.1095 19.178C18.1095 19.4435 18.1618 19.7065 18.2634 19.9518C18.365 20.1971 18.514 20.42 18.7017 20.6077L24.7812 26.6874L30.861 20.6077C31.2401 20.2285 31.4531 19.7142 31.4531 19.178C31.4531 18.6418 31.2401 18.1275 30.8609 17.7484C30.4818 17.3692 29.9675 17.1562 29.4313 17.1562C28.8951 17.1562 28.3808 17.3692 28.0016 17.7483L30.861 14.8889C31.2401 14.5098 31.4531 13.9955 31.4531 13.4593C31.4531 12.923 31.2401 12.4088 30.8609 12.0296C30.4818 11.6505 29.9675 11.4374 29.4313 11.4374C28.8951 11.4375 28.3808 11.6505 28.0016 12.0296L30.861 9.1702C31.0487 8.98247 31.1977 8.7596 31.2993 8.51431C31.4009 8.26903 31.4531 8.00613 31.4531 7.74063Z" fill="#66934C"/>
<path d="M23.8281 10.4844H25.7344V32.4062H23.8281V10.4844Z" fill="#74A15A"/>
<path d="M58.9573 9.12233L57.7386 7.65655L53.8281 10.9084L56.2651 6.53079L54.5996 5.60352L50.873 12.3509L52.819 14.2572L58.9573 9.12233Z" fill="#85A33E"/>
<path d="M53.4929 15.4634C53.4936 16.3681 53.1572 17.2406 52.5493 17.9105C51.385 19.1986 50.1304 20.4022 48.7952 21.5122L40.6626 28.2746C40.3288 28.5523 39.9061 28.7002 39.472 28.6913C39.0379 28.6824 38.6216 28.5172 38.2995 28.2261C37.9773 27.935 37.771 27.5374 37.7184 27.1064C37.6658 26.6755 37.7703 26.2399 38.0129 25.8799L40.7329 21.848L41.8111 20.2493L43.074 18.3764L43.9283 17.1098C44.0021 17.0003 44.076 16.8919 44.1523 16.7835C44.5835 16.1567 45.0347 15.5439 45.5057 14.9451C45.8977 14.4447 46.3051 13.9563 46.7233 13.4773C46.8591 13.3212 46.9961 13.1675 47.1343 13.0139C47.6292 12.4668 48.2782 12.0825 48.9958 11.9116C49.7134 11.7407 50.466 11.7911 51.1543 12.0563C51.8427 12.3215 52.4346 12.789 52.852 13.3972C53.2695 14.0053 53.4929 14.7257 53.4929 15.4634Z" fill="#F36100"/>
<path d="M49.043 15.5646L47.7682 16.9812L45.5057 14.9451C45.8977 14.4447 46.3051 13.9562 46.7233 13.4773L49.043 15.5646ZM46.2432 18.6574L44.9719 20.0764L43.074 18.3762L43.9283 17.1097C44.0021 17.0002 44.076 16.8917 44.1522 16.7833L46.2432 18.6574ZM43.4541 21.76L42.1638 23.1634L40.7329 21.848L41.8111 20.2492L43.4541 21.76Z" fill="#EB5600"/>
<path d="M49.263 4.10749L47.6552 3.08335L45.075 7.13437L46.0404 2.08519L44.168 1.72729L42.666 9.30571L45.3926 10.3354L49.263 4.10749Z" fill="#85A33E"/>
<path d="M46.6781 12.7719C46.6777 13.1753 46.6105 13.5759 46.4791 13.9574C46.1979 14.7782 45.8874 15.588 45.5474 16.3866C45.2075 17.1853 44.8401 17.9712 44.4454 18.7444L39.6285 28.1625C39.431 28.5492 39.1006 28.8517 38.698 29.0144C38.2954 29.1771 37.8476 29.1891 37.4368 29.0481C37.0261 28.9072 36.68 28.6227 36.4622 28.2471C36.2443 27.8714 36.1693 27.4298 36.2509 27.0033L37.1611 22.2436L37.5233 20.3528L37.9546 18.0951L38.2382 16.613C38.2644 16.476 38.2906 16.3402 38.3192 16.2044C38.4681 15.4669 38.6401 14.7346 38.8351 14.0074C38.9995 13.3926 39.1802 12.7826 39.3771 12.1774C39.4403 11.9796 39.507 11.783 39.5737 11.5865C39.8544 10.7693 40.4158 10.0781 41.1581 9.63583C41.9005 9.19358 42.7756 9.02892 43.6278 9.17114C44.4801 9.31335 45.2543 9.75322 45.8129 10.4125C46.3714 11.0718 46.6779 11.9078 46.6781 12.7719Z" fill="#FA6D00"/>
<path d="M42.3318 13.1793L41.7195 14.9843L38.8351 14.0074C38.9995 13.3926 39.1802 12.7826 39.3771 12.1774L42.3318 13.1793ZM40.982 17.1265L40.3577 18.9279L37.9546 18.0951L38.2382 16.613C38.2644 16.476 38.2906 16.3401 38.3192 16.2043L40.982 17.1265ZM39.6238 21.0712L39.0066 22.875L37.1611 22.2436L37.5233 20.3528L39.6238 21.0712Z" fill="#EB5600"/>
<path d="M32.4062 24.7812H39.0781V5.71875H35.2656V19.0625L32.4062 21.9219V24.7812Z" fill="#85A33E"/>
<path d="M39.0781 24.7812C39.0781 25.7924 38.6765 26.7621 37.9615 27.4771C37.2465 28.1921 36.2768 28.5938 35.2656 28.5938C34.2545 28.5938 33.2848 28.1921 32.5698 27.4771C31.8548 26.7621 31.4531 25.7924 31.4531 24.7812V2.85938H35.2656V16.0113C35.2655 17.9866 35.9378 19.903 37.1719 21.4453L38.4824 23.0835C38.8681 23.5653 39.0782 24.1641 39.0781 24.7812Z" fill="#8FB045"/>
<path d="M39.0781 24.7812C39.0781 25.7924 38.6765 26.7621 37.9615 27.4771C37.2465 28.1921 36.2768 28.5937 35.2656 28.5937C34.2545 28.5937 33.2848 28.1921 32.5698 27.4771C31.8548 26.7621 31.4531 25.7924 31.4531 24.7812V11.5733L35.2656 8.85095V16.0113C35.2655 17.9866 35.9378 19.903 37.1719 21.4453L38.4824 23.0835C38.8681 23.5653 39.0782 24.1641 39.0781 24.7812Z" fill="#A4C45A"/>
<path d="M22.5241 16.8115C22.41 16.5788 22.2505 16.3714 22.0551 16.2013C21.8596 16.0311 21.6322 15.9018 21.386 15.8209C21.1399 15.7399 20.88 15.709 20.6217 15.7299C20.3635 15.7509 20.112 15.8232 19.8821 15.9427C19.6525 16.065 19.4492 16.2314 19.284 16.4324C19.1188 16.6334 18.9949 16.865 18.9193 17.114L20.0202 13.5353C20.1689 12.9504 20.1493 12.3353 19.9635 11.761C19.8493 11.5284 19.6898 11.3209 19.4944 11.1508C19.2989 10.9807 19.0714 10.8514 18.8253 10.7705C18.5791 10.6895 18.3193 10.6586 18.061 10.6795C17.8028 10.7005 17.5513 10.7728 17.3214 10.8923C17.0917 11.0146 16.8885 11.181 16.7232 11.382C16.558 11.583 16.4341 11.8146 16.3585 12.0636L17.4594 8.48498C17.6082 7.90002 17.5886 7.28487 17.4026 6.71062C17.2885 6.47799 17.129 6.27054 16.9336 6.10043C16.7381 5.93033 16.5106 5.80101 16.2645 5.72008C16.0183 5.63915 15.7585 5.60825 15.5002 5.62918C15.242 5.65011 14.9905 5.72245 14.7606 5.84196C14.531 5.96427 14.3277 6.13069 14.1625 6.33167C13.9973 6.53266 13.8734 6.76427 13.7978 7.01323L13.7859 7.05005C13.7432 7.18838 13.6603 7.31082 13.5476 7.40168C13.4349 7.49254 13.2976 7.54768 13.1534 7.56003C13.0092 7.57238 12.8646 7.54138 12.7381 7.47101C12.6116 7.40063 12.509 7.29408 12.4434 7.16502L11.9766 6.24442C11.869 6.02513 11.7187 5.82956 11.5345 5.66919C11.3503 5.50882 11.1358 5.38688 10.9038 5.31055C10.6718 5.23422 10.4269 5.20503 10.1834 5.2247C9.93994 5.24437 9.70287 5.3125 9.48611 5.42509C9.04862 5.66333 8.72169 6.06328 8.57524 6.53942C8.42878 7.01556 8.47442 7.5301 8.7024 7.97303L9.18778 8.93033C9.25272 9.05859 9.27816 9.20324 9.26088 9.34596C9.24359 9.48869 9.18437 9.62309 9.09069 9.73215C8.99701 9.84121 8.87309 9.92003 8.7346 9.95865C8.59612 9.99727 8.44929 9.99394 8.31269 9.9491C8.06323 9.86379 7.79924 9.82917 7.53622 9.84728C7.2732 9.86538 7.01644 9.93585 6.78102 10.0545C6.31426 10.3057 5.96474 10.7301 5.80766 11.2363C5.65058 11.7426 5.69849 12.2902 5.94108 12.7615C6.17743 13.2318 6.59056 13.5893 7.08995 13.7555L10.8263 14.9841C10.5818 14.9034 10.3235 14.873 10.067 14.8945C9.81043 14.9161 9.56087 14.9892 9.33325 15.1096C8.86933 15.3622 8.52264 15.7863 8.36729 16.2912C8.21194 16.7961 8.26025 17.3418 8.50189 17.8115C8.73805 18.282 9.15111 18.6396 9.65052 18.806L13.3869 20.0347C13.1424 19.954 12.8841 19.9235 12.6275 19.945C12.3709 19.9666 12.1213 20.0397 11.8937 20.16C11.4296 20.4128 11.0828 20.8371 10.9275 21.3423C10.7722 21.8474 10.8206 22.3933 11.0626 22.8631C11.2989 23.3334 11.712 23.6908 12.2113 23.8572L20.1559 26.4694L22.6556 18.3432C22.8116 17.8348 22.7645 17.2858 22.5241 16.8115Z" fill="#79AD54"/>
<path d="M12.0493 12.5949L13.7497 11.7333L23.561 31.0957L21.8607 31.9573L12.0493 12.5949Z" fill="#89BA66"/>
<path d="M39.0781 20.0156V54.3281H10.4844V20.0156L13.3438 21.9219L16.2031 20.0156L19.0625 21.9219L21.9219 20.0156L24.7812 21.9219L27.6406 20.0156L30.5 21.9219L33.3594 20.0156L36.2188 21.9219L39.0781 20.0156Z" fill="#FFB531"/>
<path d="M39.0781 28.5557V54.3282H10.4844V50.7361C20.989 45.6035 30.9051 38.3943 39.0781 28.5557Z" fill="#FCAC1F"/>
<path d="M50.5156 20.0156V54.3281H39.0781V20.0156L41.9375 21.9219L44.7969 20.0156L47.6562 21.9219L50.5156 20.0156Z" fill="#F98500"/>
<path d="M50.5156 52.9795V54.3281H49.167L44.7969 49.9569L40.4268 54.3281H39.0781V52.9795L43.8438 48.215V23.8281H45.75V48.215L50.5156 52.9795Z" fill="#E66B00"/>
<path d="M6.71858 58.1406C6.15615 58.1481 5.60911 57.9569 5.1737 57.6008C4.7383 57.2447 4.44243 56.7465 4.33815 56.1938L2.90537 47.8945C2.56808 45.9406 4.12871 44.162 6.18055 44.162C8.01424 44.162 9.50076 45.5972 9.50076 47.3675V55.4551C9.50076 56.938 8.25514 58.1406 6.71858 58.1406Z" fill="#DE4132"/>
<path d="M16.2032 37.1719C12.2047 37.1719 8.96338 40.3012 8.96338 44.1615L8.99388 47.6562H14.9965V45.3263L14.2897 43.9616C13.3891 42.2221 14.2927 40.1166 16.2032 39.5018V37.1719Z" fill="#79AD54"/>
<path d="M17.1093 58.1406C15.5724 58.1406 14.3271 56.938 14.3271 55.4546V47.367C14.3271 45.5967 15.8137 44.1615 17.6474 44.1615C19.6992 44.1615 21.2598 45.9402 20.9225 47.8941L19.4897 56.1937C19.3855 56.7465 19.0896 57.2447 18.6542 57.6008C18.2188 57.9569 17.6718 58.1481 17.1093 58.1406Z" fill="#DE4132"/>
<path d="M11.5565 44.1615H12.2713C13.1366 44.1615 13.9664 44.5052 14.5782 45.117C15.19 45.7289 15.5338 46.5587 15.5338 47.4239V54.5843C15.5336 55.5275 15.1589 56.4321 14.4919 57.099C13.8249 57.7659 12.9203 58.1406 11.9771 58.1406H11.8508C10.9074 58.1406 10.0027 57.7659 9.33572 57.0989C8.66868 56.4318 8.29395 55.5271 8.29395 54.5838V47.4234C8.29407 46.5583 8.63786 45.7286 9.2497 45.1168C9.86154 44.5051 10.6913 44.1615 11.5565 44.1615Z" fill="#F35244"/>
<path d="M58.9572 9.00309L57.7385 7.53766L53.8276 10.7891L56.2646 6.41154L54.5991 5.48427L51.5015 11.0481C50.8396 10.7922 50.1274 10.693 49.4208 10.7584C48.7142 10.8237 48.0323 11.0517 47.4285 11.4246C47.1678 10.5758 46.6677 9.82035 45.9881 9.24887L49.2627 4.10748L47.6543 3.08287L45.0742 7.13365L46.0392 2.08447L44.1668 1.72705L42.9361 8.16982C42.2291 8.18423 41.5349 8.36059 40.9068 8.68534L41.7844 10.3771C42.1086 10.2099 42.4633 10.1099 42.8271 10.0829C43.1909 10.0559 43.5565 10.1026 43.9018 10.2202C44.9922 10.5952 45.6874 11.6211 45.7247 12.7716C45.7497 13.5421 42.2152 20.9685 42.2152 20.9685L40.0311 19.5056V18.8155L40.36 18.9286L40.9796 17.1256L40.0311 16.7999V14.4052L41.7156 14.9837L42.3351 13.1808L40.0311 12.3893V5.71874C40.0311 5.46595 39.9307 5.22352 39.7519 5.04478C39.5732 4.86603 39.3307 4.76561 39.0779 4.76561H36.2186V2.85936C36.2186 2.60658 36.1182 2.36415 35.9394 2.1854C35.7607 2.00666 35.5182 1.90624 35.2654 1.90624H31.4529C31.2002 1.90624 30.9577 2.00666 30.779 2.1854C30.6002 2.36415 30.4998 2.60658 30.4998 2.85936V4.96494C29.7875 4.68992 28.9966 4.69982 28.2914 4.99258C28.0597 5.08884 27.841 5.21385 27.6404 5.36465V4.81923C27.6487 4.07687 27.3701 3.35998 26.8628 2.81793C26.3555 2.27589 25.6586 1.9505 24.9174 1.90957C24.5305 1.88967 24.1436 1.9493 23.7807 2.08479C23.4178 2.22029 23.0865 2.42876 22.8073 2.69733C22.528 2.9647 22.3056 3.28572 22.1535 3.64112C22.0013 3.99653 21.9225 4.379 21.9217 4.76561V5.37097C21.7329 5.23002 21.5287 5.1111 21.3129 5.01652C20.8862 4.83583 20.4249 4.75177 19.962 4.77038L20.0692 6.67365C20.0911 6.67234 20.1131 6.67186 20.1367 6.67186C20.2784 6.67329 20.4182 6.70408 20.5474 6.76229C20.6883 6.82517 20.8163 6.91355 20.9251 7.02297C21.163 7.26068 21.466 7.42253 21.7959 7.48805C22.1257 7.55356 22.4676 7.51982 22.7783 7.39107C23.089 7.26232 23.3545 7.04434 23.5414 6.76471C23.7282 6.48507 23.8279 6.15631 23.828 5.82001V4.76561C23.8281 4.63647 23.8544 4.5087 23.9054 4.39005C23.9563 4.27139 24.0309 4.16432 24.1244 4.07532C24.218 3.98632 24.3287 3.91725 24.4498 3.8723C24.5708 3.82735 24.6997 3.80744 24.8287 3.8138C25.0789 3.83552 25.3116 3.9514 25.4797 4.13803C25.6477 4.32465 25.7387 4.56811 25.7342 4.81923V5.82001C25.7342 6.15641 25.834 6.48526 26.0209 6.76496C26.2078 7.04466 26.4734 7.26265 26.7842 7.39136C27.0951 7.52006 27.4371 7.5537 27.767 7.48802C28.0969 7.42234 28.4 7.2603 28.6378 7.02237C28.8466 6.80683 29.1312 6.68111 29.4311 6.67186C29.6425 6.67187 29.8491 6.73455 30.0248 6.85198C30.2006 6.9694 30.3375 7.13629 30.4184 7.33155C30.4993 7.52681 30.5205 7.74167 30.4792 7.94897C30.438 8.15626 30.3363 8.34668 30.1868 8.49614L27.3275 11.3555C27.239 11.444 27.1687 11.5491 27.1208 11.6647C27.0729 11.7804 27.0483 11.9043 27.0483 12.0295C27.0483 12.1547 27.0729 12.2786 27.1208 12.3943C27.1687 12.5099 27.239 12.615 27.3275 12.7035C27.6995 13.0758 28.277 13.0477 28.6753 12.7035C29.1297 12.3103 29.82 12.2958 30.202 12.7273C30.6893 13.2786 30.3857 14.0153 30.1868 14.2141L27.3275 17.0734C27.1487 17.2522 27.0482 17.4946 27.0482 17.7474C27.0482 18.0002 27.1486 18.2427 27.3273 18.4215C27.506 18.6002 27.7485 18.7007 28.0013 18.7007C28.2541 18.7008 28.4965 18.6004 28.6753 18.4216C28.7745 18.3224 29.5157 17.7702 30.1868 18.4216C30.7083 18.9277 30.3857 19.7342 30.1868 19.933L29.8065 20.3133L28.1691 19.2219C28.0125 19.1175 27.8286 19.0618 27.6404 19.0618C27.4522 19.0618 27.2683 19.1175 27.1117 19.2219L25.7342 20.1409V10.4844H23.828V20.1411L23.2238 19.7381L23.5667 18.6231C23.7971 17.8794 23.7279 17.075 23.3738 16.3816C23.1994 16.0321 22.9566 15.7212 22.6599 15.4672C22.3631 15.2133 22.0185 15.0215 21.6462 14.9032C21.3208 14.7989 20.9794 14.7535 20.6381 14.7693L20.9315 13.8151C21.1439 13.0275 21.117 12.1945 20.8543 11.4222C20.8422 11.3904 20.8284 11.3592 20.813 11.3288C20.5719 10.8453 20.201 10.4385 19.7417 10.1538C19.2825 9.86915 18.7531 9.71794 18.2129 9.7171C18.1672 9.7171 18.1215 9.71817 18.0758 9.72043L18.3693 8.76731C18.5828 7.97971 18.5567 7.14633 18.2942 6.37365C18.282 6.34143 18.2681 6.30989 18.2525 6.27918C18.0114 5.79543 17.6403 5.38837 17.1809 5.10358C16.7215 4.81879 16.1919 4.66753 15.6513 4.66673C15.2255 4.66756 14.8052 4.76284 14.4207 4.9457C14.0362 5.12857 13.697 5.39446 13.4277 5.72422C13.2862 5.89623 13.1647 6.08372 13.0655 6.28311L12.8272 5.81274C12.6591 5.47693 12.4253 5.17827 12.1397 4.93444C11.854 4.6906 11.5224 4.50655 11.1644 4.39318C10.8159 4.28118 10.4484 4.24023 10.0838 4.27275C9.71914 4.30527 9.36474 4.41059 9.04153 4.58249C8.38353 4.93807 7.89071 5.53693 7.66841 6.25106C7.44612 6.96519 7.51197 7.73795 7.85191 8.40417L8.11628 8.92517C7.50917 8.83103 6.88784 8.93053 6.34049 9.20956C4.91497 9.95311 4.36621 11.7341 5.09142 13.1929C5.87739 14.7734 7.95842 15.0448 7.95842 15.0448C7.26967 15.9274 7.15732 17.1536 7.64961 18.2395C8.18086 19.41 9.53108 19.7872 9.53108 19.7872V36.2187H11.4373V21.7959L12.8147 22.7147C12.9714 22.8193 13.1555 22.8751 13.3438 22.8751C13.5322 22.8751 13.7163 22.8193 13.8729 22.7147L16.203 21.1609L18.5338 22.7149C18.6904 22.8193 18.8744 22.875 19.0626 22.875C19.2508 22.875 19.4347 22.8193 19.5913 22.7149L21.9217 21.1611L24.2526 22.715C24.4091 22.8193 24.593 22.875 24.7811 22.875C24.9693 22.875 25.1532 22.8193 25.3097 22.715L27.6404 21.1611L29.9711 22.7149C30.1276 22.8192 30.3116 22.8749 30.4997 22.8749C30.6878 22.8749 30.8718 22.8192 31.0283 22.7149L33.3592 21.1615L35.6905 22.7151C35.8471 22.8194 36.031 22.875 36.2191 22.875C36.4071 22.875 36.591 22.8194 36.7476 22.7151L38.1248 21.7969V53.375H22.8748V55.2812H50.5154C50.7682 55.2812 51.0107 55.1808 51.1894 55.0021C51.3682 54.8233 51.4686 54.5809 51.4686 54.3281V20.2721C52.0851 19.6788 52.6811 19.0646 53.2557 18.4306C53.8893 17.7314 54.2923 16.854 54.4098 15.9177C54.5273 14.9815 54.3536 14.0318 53.9124 13.1977L58.9572 9.00309ZM32.4061 3.81249H34.3123V8.36032L32.4061 9.72186V3.81249ZM19.0654 20.7686L17.3149 18.8242C17.3149 18.8242 14.9231 14.0432 13.756 11.7259L12.0501 12.5905L15.4791 19.352L14.3353 20.1153C14.3974 19.8207 14.2315 19.5155 13.9968 19.3267C13.7503 19.1526 13.4739 19.0252 13.1814 18.9506L10.4321 18.0703C10.0838 17.9586 9.71789 17.8359 9.47544 17.562C9.3485 17.4185 9.26441 17.2423 9.23277 17.0533C9.20113 16.8644 9.2232 16.6704 9.29646 16.4934C9.36973 16.3163 9.49125 16.1635 9.64718 16.0522C9.8031 15.9409 9.98715 15.8756 10.1784 15.8638C10.4421 15.8474 10.7058 15.9334 10.9686 15.905C11.133 15.8872 11.2895 15.8253 11.4215 15.7256C11.5535 15.626 11.656 15.4925 11.7182 15.3393C11.7804 15.1861 11.7999 15.0189 11.7746 14.8555C11.7494 14.6921 11.6803 14.5385 11.5748 14.4112C11.3538 14.1446 11.0056 14.0265 10.6758 13.9205L7.87371 13.0203C7.52368 12.9079 6.44534 12.5526 6.73854 11.4375C6.98945 10.4844 8.15631 10.8879 8.42557 10.9133C8.6898 10.938 8.95609 10.8984 9.20166 10.7977C9.44722 10.6971 9.66475 10.5385 9.83564 10.3354C10.0065 10.1324 10.1257 9.89093 10.1829 9.63179C10.2401 9.37264 10.2337 9.1035 10.1642 8.84737C10.0611 8.46755 9.82678 8.1392 9.65641 7.7844C9.48604 7.4296 9.38167 7.00379 9.55002 6.64804C9.63909 6.47256 9.78588 6.33311 9.9657 6.25315C10.1455 6.17319 10.3474 6.1576 10.5373 6.209C11.2149 6.41309 11.342 7.30331 11.7678 7.86911C11.9177 8.06816 12.111 8.2304 12.333 8.34346C12.5551 8.45652 12.8 8.51742 13.0491 8.52153C13.2983 8.52565 13.545 8.47286 13.7707 8.36719C13.9963 8.26152 14.1949 8.10576 14.3513 7.91176C14.6619 7.52646 14.7904 6.86499 15.2594 6.66317C15.378 6.61398 15.5052 6.58891 15.6337 6.58944C15.7621 6.58997 15.8891 6.61608 16.0073 6.66625C16.1256 6.71641 16.2326 6.78963 16.3222 6.88162C16.4118 6.97362 16.4822 7.08254 16.5293 7.20204C16.708 7.70183 16.5483 8.25214 16.3887 8.75825L15.5666 11.3662C15.4713 11.6674 15.376 11.9858 15.4418 12.2941C15.476 12.454 15.5524 12.6019 15.663 12.7223C15.7736 12.8428 15.9144 12.9315 16.0708 12.9793C16.2272 13.0271 16.3935 13.0322 16.5526 12.9941C16.7116 12.956 16.8576 12.876 16.9753 12.7626C17.2361 12.5111 17.3313 12.1241 17.5925 11.8728C17.7796 11.7072 18.0242 11.6217 18.2737 11.6346C18.5233 11.6475 18.7578 11.7577 18.9269 11.9417C19.3232 12.4107 19.1605 13.1158 18.9767 13.7018L18.147 16.3461C18.035 16.7035 17.9227 17.0877 18.0375 17.4436C18.0866 17.596 18.175 17.7328 18.2938 17.8401C18.4126 17.9474 18.5576 18.0216 18.7142 18.055C18.8708 18.0885 19.0334 18.0801 19.1857 18.0306C19.338 17.9812 19.4746 17.8925 19.5817 17.7735C19.7812 17.5517 19.8622 17.244 20.0554 17.0166C20.4622 16.5375 21.3523 16.6344 21.6467 17.1896C21.8919 17.6521 21.7293 18.216 21.5624 18.7122C21.5238 18.8901 21.4462 19.0572 21.3351 19.2014C21.2241 19.3456 21.0824 19.4634 20.9203 19.5462L19.0654 20.7686ZM33.8887 19.2231C33.732 19.1185 33.5479 19.0627 33.3596 19.0627C33.1712 19.0627 32.9871 19.1185 32.8305 19.2231L32.4061 19.5056V12.0639L34.3123 10.7027V16.0113C34.315 17.4332 34.6305 18.8371 35.2364 20.1234L33.8887 19.2231ZM37.3428 20.027C36.6102 18.8155 36.2215 17.4272 36.2186 16.0113V6.67186H38.1248V19.5056L37.3428 20.027ZM40.0311 21.7965L41.4086 22.7149C41.5651 22.8192 41.7491 22.8749 41.9373 22.8749C42.1254 22.8749 42.3094 22.8192 42.466 22.7149L44.7967 21.1611L47.1273 22.7149C47.2839 22.8192 47.4679 22.8749 47.656 22.8749C47.8442 22.8749 48.0281 22.8192 48.1847 22.7149L49.5623 21.7965V52.027L45.7498 48.2145V23.8281H43.8436V48.2145L40.0311 52.027V21.7965ZM44.7967 49.9572L48.2144 53.375H41.379L44.7967 49.9572ZM51.8424 17.1518C51.0517 18.0252 50.2183 18.859 49.3454 19.6502L47.6561 20.7763L45.5162 19.3499L46.2474 18.5415L45.8032 18.1397C46.0222 17.677 46.6491 16.2184 46.757 15.9484L47.7663 16.8612L49.0447 15.4472L47.4583 14.0124C47.4649 13.9885 48.6489 12.5892 49.8423 12.6456C50.5081 12.6602 51.148 12.9068 51.6513 13.3429C51.9141 13.5804 52.1275 13.8673 52.2793 14.1873C52.4311 14.5073 52.5183 14.8541 52.536 15.2079C52.5537 15.5616 52.5015 15.9154 52.3824 16.2489C52.2634 16.5825 52.0797 16.8893 51.842 17.1518H51.8424Z" fill="black"/>
<path d="M17.647 43.2087C16.9854 43.2078 16.3323 43.3576 15.7373 43.6468L15.6737 43.5241C15.5138 43.219 15.4302 42.8797 15.4298 42.5352C15.4366 42.0566 15.5956 41.5926 15.8837 41.2104C16.1718 40.8282 16.574 40.5476 17.0322 40.4092C17.2243 40.3474 17.3918 40.2263 17.5106 40.0632C17.6294 39.9002 17.6934 39.7036 17.6935 39.5019V37.1719C17.6935 36.9191 17.593 36.6767 17.4143 36.4979C17.2356 36.3192 16.9931 36.2188 16.7403 36.2188C13.8438 36.2188 11.1342 37.7249 9.66874 40.1491C8.9808 41.2852 8.59608 42.5789 8.55144 43.9063C7.66523 43.3339 6.60154 43.1021 5.55753 43.2541C4.51351 43.406 3.55998 43.9313 2.87368 44.7325C2.48884 45.1867 2.20819 45.7197 2.05146 46.2939C1.89474 46.8682 1.86575 47.4699 1.96654 48.0566L3.39861 56.3561C3.5394 57.131 3.95 57.8311 4.55763 58.3322C5.16526 58.8333 5.93068 59.1031 6.71823 59.0937C7.61401 59.0983 8.48206 58.7833 9.16645 58.2053C9.96614 58.7829 10.9275 59.0937 11.9139 59.0937C12.9004 59.0937 13.8618 58.7829 14.6614 58.2053C15.3458 58.7833 16.2139 59.0983 17.1097 59.0937C17.8973 59.1031 18.6627 58.8333 19.2704 58.3321C19.878 57.831 20.2886 57.1309 20.4294 56.3559L21.8615 48.0564C21.9013 47.8263 21.9215 47.5932 21.9218 47.3596C21.9218 45.0709 20.0036 43.2087 17.647 43.2087ZM11.2999 41.1357C11.7868 40.3468 12.441 39.6745 13.2165 39.1664C13.9919 38.6583 14.8695 38.3269 15.7872 38.1955V38.8693C15.1089 39.2128 14.5386 39.7368 14.1392 40.3838C13.7398 41.0307 13.5267 41.7754 13.5235 42.5357C13.5237 42.8377 13.558 43.1387 13.6258 43.433C13.1897 43.2842 12.7321 43.2084 12.2714 43.2084H11.5565C11.2043 43.2082 10.8535 43.2522 10.5123 43.3394C10.624 42.5593 10.8919 41.8098 11.2999 41.1356V41.1357ZM5.27698 56.0318L3.84491 47.7319C3.78977 47.4189 3.80487 47.0976 3.88912 46.7912C3.97338 46.4848 4.12468 46.2009 4.33208 45.9602C4.74849 45.4792 5.33586 45.1794 5.96964 45.1242C6.60341 45.0691 7.23375 45.2629 7.72699 45.6647C7.47231 46.2162 7.34059 46.8165 7.34097 47.4239V54.5843C7.34026 55.3492 7.53537 56.1017 7.90773 56.7699C7.57044 57.0407 7.15074 57.188 6.71823 57.1875C6.38025 57.1959 6.05018 57.0845 5.78641 56.873C5.52265 56.6615 5.3422 56.3636 5.27698 56.0318ZM11.9168 57.1875C10.3055 57.1875 9.24722 56.0199 9.24722 54.5838V47.4234C9.24789 46.8112 9.49141 46.2243 9.92436 45.7914C10.3573 45.3586 10.9443 45.1152 11.5565 45.1146H12.2714C12.8837 45.1152 13.4707 45.3586 13.9037 45.7916C14.3367 46.2246 14.5801 46.8116 14.5807 47.4239V54.5843C14.5807 56.0199 13.5279 57.1875 11.9168 57.1875ZM19.9826 47.7325L18.5509 56.0318C18.4857 56.3636 18.3052 56.6617 18.0413 56.8732C17.7775 57.0847 17.4474 57.196 17.1093 57.1875C16.6767 57.1879 16.257 57.0404 15.9198 56.7694C16.2922 56.1012 16.4873 55.3488 16.4866 54.5838V47.4234C16.487 46.8169 16.3557 46.2174 16.1017 45.6666C16.5366 45.3079 17.0833 45.1127 17.647 45.1149C18.953 45.1149 20.0155 46.1217 20.0155 47.3595C20.0152 47.4845 20.0044 47.6093 19.983 47.7325H19.9826Z" fill="black"/>
</svg>
